<svg xmlns="http://www.w3.org/2000/svg" viewBox="0 0 750 500"><g id="freepik--Floor--inject-80"><g><line x1="565.49149" y1="246.7233" x2="722.19388" y2="246.7233" style="fill:none; stroke:#263238; stroke-linecap:round; stroke-linejoin:round;"></line><line x1="219.1442" y1="246.7233" x2="556.76569" y2="246.7233" style="fill:none; stroke:#263238; stroke-linecap:round; stroke-linejoin:round;"></line><line x1="30.4538" y1="246.7233" x2="209.076" y2="246.7233" style="fill:none; stroke:#263238; stroke-linecap:round; stroke-linejoin:round;"></line></g></g><g id="freepik--Character_2--inject-80"><g><rect x="502.32029" y="146.2071" width="10.6898" height="193.6284" style="fill:#7d7d7d; stroke:#263238; stroke-linecap:round; stroke-linejoin:round;"></rect><rect x="236.7445" y="146.2071" width="10.6899" height="193.6284" style="fill:#7d7d7d; stroke:#263238; stroke-linecap:round; stroke-linejoin:round;"></rect><rect x="244.4279" y="330.816" width="262.56919" height="21.7137" style="fill:#263238; stroke:#263238; stroke-linecap:round; stroke-linejoin:round;"></rect><g><g><path d="M373.01779,176.3976c-4.781,.3918-9.1553,2.8672-12.1696,6.5989-.3878,.4802-.96219,.9126-1.23919,1.58-2.39691,5.7736-2.76751,18.6539-4.05581,18.116,0,0-1.6224-2.9743-3.1095-.1352s.9464,4.7318,.9464,4.7318h42.7213s1.2167-2.7039,0-4.191c-1.2168-1.4872-2.7039-1.8927-2.7039-1.8927-.4229,.4681-2.7099-9.6695-3.9207-14.3306-1.1113-4.2783-4.8096-7.4967-11.221-9.8692-1.71179-.6334-3.5322-.7485-5.248-.608Z" style="fill:#dedede; stroke:#263238; stroke-linecap:round; stroke-linejoin:round;"></path><path d="M358.83,207.2258s8.53019-13.8248,12.94239-14.4131,12.3542,5.0005,15.0015,9.4127,4.11811,6.177,4.11811,6.177l-32.062-1.1766Z" style="opacity:.24;"></path><path d="M367.53579,178.9617c-1.6227-.0973-3.19079,.601-3.505,.8105-.3141,.2094-1.3613,1.3613-1.3613,1.3613,0,0,1.171-.795,3.6792-.9848,4.3188-.3266,3.84431-1.0277,1.1871-1.187Z" style="fill:#263238; stroke:#263238; stroke-linecap:round; stroke-linejoin:round;"></path><path d="M376.73549,179.7531s6.4583-.0857,8.8668,1.5898c0,0-7.1914-5.3596-8.8668-1.5898Z" style="fill:#263238; stroke:#263238; stroke-linecap:round; stroke-linejoin:round;"></path><path d="M369.99969,186.8928s3.0757-3.1829,8.2196-1.0066" style="fill:none; stroke:#263238; stroke-linecap:round; stroke-linejoin:round;"></path><path d="M378.45049,192.1482s-2.0943,2.3038-4.1886,2.4085c-2.0944,.1047-2.0944,1.6754-1.9896,2.4084" style="fill:none; stroke:#263238; stroke-linecap:round; stroke-linejoin:round;"></path><path d="M377.74459,183.3143s-1.5085-4.2238-4.4249-3.8215-3.8215,3.922-3.8215,3.922" style="fill:none; stroke:#263238; stroke-linecap:round; stroke-linejoin:round;"></path><path d="M372.21349,182.0069s-1.7096,.9051-1.2068,1.4079c.5028,.5029,1.9108,.1006,1.2068-1.4079Z" style="fill:#263238; stroke:#263238; stroke-linecap:round; stroke-linejoin:round;"></path><path d="M376.23609,183.0126c.1772,.3929-.4179-1.2324-1.609-1.3074-1.2252-.077,.9051,2.313,1.609,1.3074Z" style="fill:#263238; stroke:#263238; stroke-linecap:round; stroke-linejoin:round;"></path><path d="M367.69019,182.3407c0,.4557-.5335,.8251-1.1917,.8251s-1.1917-.3694-1.1917-.8251c0-.4556,.5335-.825,1.1917-.825s1.1917,.3694,1.1917,.825Z" style="fill:#263238; stroke:#263238; stroke-linecap:round; stroke-linejoin:round;"></path><path d="M381.441,182.3407c0,.4557-.53361,.8251-1.19181,.8251-.6581,0-1.1917-.3694-1.1917-.8251,0-.4556,.5336-.825,1.1917-.825,.6582,0,1.19181,.3694,1.19181,.825Z" style="fill:#263238; stroke:#263238; stroke-linecap:round; stroke-linejoin:round;"></path><path d="M382.08869,183.8309s2.3191-.7247,3.7685,1.3045" style="fill:none; stroke:#263238; stroke-linecap:round; stroke-linejoin:round;"></path><path d="M364.69569,183.9759s-2.1742-.4348-3.1888,1.5943" style="fill:none; stroke:#263238; stroke-linecap:round; stroke-linejoin:round;"></path></g><g><rect x="220.7616" y="170.2339" width="309.45449" height="6.3221" style="fill:#7d7d7d; stroke:#263238; stroke-linecap:round; stroke-linejoin:round;"></rect><g><g><rect x="523.05839" y="164.6352" width="7.6741" height="16.9471" transform="translate(1053.79088 346.2175) rotate(180)" style="fill:#263238; stroke:#263238; stroke-linecap:round; stroke-linejoin:round;"></rect><g><rect x="529.13379" y="123.1229" width="18.6397" height="99.9716" transform="translate(1076.90728 346.2174) rotate(180)" style="fill:#75CE36; stroke:#263238; stroke-linecap:round; stroke-linejoin:round;"></rect><rect x="547.67959" y="123.1229" width="18.6398" height="99.9716" transform="translate(1113.99898 346.2174) rotate(180)" style="fill:#75CE36; stroke:#263238; stroke-linecap:round; stroke-linejoin:round;"></rect><rect x="580.25809" y="156.1089" width="12.7625" height="33.9996" style="fill:#263238; stroke:#263238; stroke-linecap:round; stroke-linejoin:round;"></rect><rect x="588.28789" y="168.5367" width="12.7625" height="9.144" style="fill:#263238; stroke:#263238; stroke-linecap:round; stroke-linejoin:round;"></rect><rect x="145.9628" y="168.5367" width="12.7625" height="9.144" style="fill:#263238; stroke:#263238; stroke-linecap:round; stroke-linejoin:round;"></rect><rect x="566.22549" y="123.1229" width="18.6398" height="99.9716" transform="translate(1151.09078 346.2174) rotate(180)" style="fill:#75CE36; stroke:#263238; stroke-linecap:round; stroke-linejoin:round;"></rect></g></g><g><rect x="532.86219" y="126.8026" width="10.8069" height="13.8738" style="fill:#fff;"></rect><rect x="551.84729" y="126.8026" width="10.8069" height="13.8738" style="fill:#fff;"></rect><rect x="570.83239" y="126.8026" width="10.8069" height="13.8738" style="fill:#fff;"></rect></g><g><rect x="532.86219" y="216.2187" width="10.8069" height="3.5252" style="fill:#fff;"></rect><rect x="551.84729" y="216.2187" width="10.8069" height="3.5252" style="fill:#fff;"></rect><rect x="570.83239" y="216.2187" width="10.8069" height="3.5252" style="fill:#fff;"></rect></g><g><rect x="532.86219" y="210.9554" width="10.8069" height="3.5252" style="fill:#263238;"></rect><rect x="551.84729" y="210.9554" width="10.8069" height="3.5252" style="fill:#263238;"></rect><rect x="570.83239" y="210.9554" width="10.8069" height="3.5252" style="fill:#263238;"></rect></g></g><g><g><rect x="216.6967" y="164.6352" width="7.6742" height="16.9471" style="fill:#263238; stroke:#263238; stroke-linecap:round; stroke-linejoin:round;"></rect><rect x="155.0994" y="156.1089" width="12.7625" height="33.9996" style="fill:#263238; stroke:#263238; stroke-linecap:round; stroke-linejoin:round;"></rect><g><rect x="199.6558" y="123.1229" width="18.6397" height="99.9716" style="fill:#75CE36; stroke:#263238; stroke-linecap:round; stroke-linejoin:round;"></rect><rect x="181.1099" y="123.1229" width="18.6398" height="99.9716" style="fill:#75CE36; stroke:#263238; stroke-linecap:round; stroke-linejoin:round;"></rect><rect x="162.564" y="123.1229" width="18.6398" height="99.9716" style="fill:#75CE36; stroke:#263238; stroke-linecap:round; stroke-linejoin:round;"></rect></g></g><g><rect x="165.6459" y="126.8026" width="10.8069" height="13.8738" style="fill:#fff;"></rect><rect x="184.631" y="126.8026" width="10.8069" height="13.8738" style="fill:#fff;"></rect><rect x="203.6161" y="126.8026" width="10.8069" height="13.8738" style="fill:#fff;"></rect></g><g><rect x="165.6459" y="216.2187" width="10.8069" height="3.5252" style="fill:#fff;"></rect><rect x="184.631" y="216.2187" width="10.8069" height="3.5252" style="fill:#fff;"></rect><rect x="203.6161" y="216.2187" width="10.8069" height="3.5252" style="fill:#fff;"></rect></g><g><rect x="165.6459" y="210.9554" width="10.8069" height="3.5252" style="fill:#263238;"></rect><rect x="184.631" y="210.9554" width="10.8069" height="3.5252" style="fill:#263238;"></rect><rect x="203.6161" y="210.9554" width="10.8069" height="3.5252" style="fill:#263238;"></rect></g></g></g><path d="M289.6853,167.2954s-.9815-1.5503-1.9484-1.792c-.9669-.2418-3.7063-1.2086-4.2703,1.2891-.564,2.4978,0,6.8487,.7251,7.3321,.7252,.4834,2.5783,.8863,3.2229-.564,.6446-1.4503,.4834-3.2229,.8057-4.1898,.3223-.9668,1.465-2.0754,1.465-2.0754Z" style="fill:#dedede; stroke:#263238; stroke-linecap:round; stroke-linejoin:round;"></path><g><path d="M459.20619,166.8521s1.598,3.5158,.8789,4.7143c-.71909,1.1986-3.0363,1.4383-3.7555-.0799-.7191-1.5181-.799-3.276-.31959-3.8353,.47939-.5594,3.19619-.7991,3.19619-.7991Z" style="fill:#dedede; stroke:#263238; stroke-linecap:round; stroke-linejoin:round;"></path><path d="M460.64439,164.7746s2.2373-.3196,3.356,1.0388c1.11861,1.3583,1.2784,4.7143,.8789,5.8329-.3995,1.1187-1.1986,1.678-2.3172,1.5182-1.1187-.1598-1.7579-.6392-1.9177-1.2785-.1598-.6392-.2397-1.5181-.3196-1.9176-.0799-.3996-1.1186-3.1163-1.1186-3.1163,0,0-.7991-1.0387,1.4382-2.0775Z" style="fill:#dedede; stroke:#263238; stroke-linecap:round; stroke-linejoin:round;"></path><path d="M464.63959,166.133s2.3971-.3196,3.8353,.5593c1.4383,.879,1.3584,4.7942,.3197,5.9129-1.0388,1.1186-3.0364,.6392-3.356,.2397-.31959-.3995-.5593-1.1986-.5593-1.1986,0,0,.0799-3.0363,.0799-3.7554,0-.7192-.3196-1.7579-.3196-1.7579Z" style="fill:#dedede; stroke:#263238; stroke-linecap:round; stroke-linejoin:round;"></path><path d="M469.43379,167.4914s-.15979,2.6368,.5593,3.1961c.7191,.5593,2.1574-.1598,2.9564-.7191,.7991-.5594,1.1187-1.9177-.0799-2.5569-1.1985-.6393-2.8765-.7192-3.4358,.0799Z" style="fill:#dedede; stroke:#263238; stroke-linecap:round; stroke-linejoin:round;"></path></g><g><g><path d="M318.5409,341.4624h9.2046v70.6358c0,.6235-.5062,1.1297-1.1297,1.1297h-6.9452c-.6235,0-1.1297-.5062-1.1297-1.1297v-70.6358h0Z" style="fill:#263238; stroke:#263238; stroke-linecap:round; stroke-linejoin:round;"></path><path d="M424.65379,341.4624h9.2045v70.6358c0,.6235-.5062,1.1297-1.1297,1.1297h-6.9452c-.62344,0-1.1296-.50616-1.1296-1.1296v-70.6359h0Z" style="fill:#263238; stroke:#263238; stroke-linecap:round; stroke-linejoin:round;"></path></g><path d="M309.2365,366.7792h10.6899v69.3054c0,1.35777-1.10233,2.4601-2.4601,2.4601h-5.7697c-1.35777,0-2.4601-1.10233-2.4601-2.4601v-69.3054h0Z" style="fill:#263238; stroke:#263238; stroke-linecap:round; stroke-linejoin:round;"></path><path d="M432.47289,366.7792h10.6898v69.3054c0,1.35777-1.10233,2.4601-2.4601,2.4601h-5.76959c-1.35777,0-2.46011-1.10234-2.46011-2.46011v-69.30539h0Z" style="fill:#263238; stroke:#263238; stroke-linecap:round; stroke-linejoin:round;"></path><g><path d="M443.46839,301.0735c-.2715-2.3155-2.2336-4.061-4.5649-4.061h-16.9777l-5.311-66.6315h-78.7981l-5.311,66.6315h-16.97769c-2.3313,0-4.2934,1.7455-4.5649,4.061l-6.7389,57.4693h145.9831l-6.7389-57.4693Z" style="fill:#7d7d7d; stroke:#263238; stroke-linecap:round; stroke-linejoin:round;"></path><path d="M336.41489,346.6596s5.065-3.3134,8.7303-8.8113c3.6653-5.498,5.9651-6.4837,5.9651-6.4837,0,0,53.5025,1.6485,54.54971,1.9103,1.04719,.2618,15.23149,9.3477,15.23149,9.3477l-17.3986-14.2589-50.0478-2.73-4.6696-.849-12.4079,17.2961,.0473,4.5788Z" style="fill:#263238; stroke:#263238; stroke-linecap:round; stroke-linejoin:round;"></path><path d="M304.2242,358.5428h145.7444v12.8395c0,2.99199-2.42911,5.4211-5.4211,5.4211h-134.9022c-2.99199,0-5.4211-2.42911-5.4211-5.4211v-12.8395h0Z" style="fill:#263238; stroke:#263238; stroke-linecap:round; stroke-linejoin:round;"></path></g></g><path d="M325.35059,257.9181c.0225-1.6029-.0198-3.2424-.1111-4.8845" style="fill:none; stroke:#263238; stroke-linecap:round; stroke-linejoin:round;"></path><g><path d="M419.45879,218.3155s-13.0615-9.6951-21.5447-12.9268-19.5249,1.0772-24.1032,1.0772-11.9842-4.8475-20.1981-2.1545c-8.2139,2.6931-20.33279,12.5229-20.33279,12.5229l-13.5058,8.3447s-10.444-1.0244-18.2733,1.3481c-10.2608,3.1093-6.9396,2.6681-6.9396,2.6681,0,0-2.2312-13.4311-2.9006-20.1248-.6693-6.6937,1.1157-20.5273,1.3388-21.4198s1.3387-2.4544,1.3387-2.4544c0,0,3.8999-5.3727,4.3818-6.3364,.4818-.9637,.3614-2.7707-.1205-4.698-.4818-1.9274-1.566-4.5776-2.2888-5.5413s-1.8069-1.3251-3.0115-1.8069c-1.2047-.4819-3.1321,.4818-3.6139,.4818-.4819,0-2.4093-.2409-2.4093,.9637s.241,3.132,1.9274,3.6139c1.6865,.4818,3.0116,.3614,3.0116,.3614l-.6023,1.566s-5.1955,2.6757-5.7066,2.6737c-1.7732-.0069-3.4192,.1654-6.4523,.1654-2.2217,0-5.2398-.2046-5.4443,.0893,0,0,.3771,5.6244,1.2203,7.5518,.8433,1.9274,1.6865,1.9274,1.9274,3.2525s-.8432,10.8416-3.132,16.3828c-2.2888,5.5413-4.939,17.7434-5.4208,23.1642-.4819,5.4208,1.566,17.2261,1.566,17.2261,0,0-1.8069,4.939,2.5297,8.071,4.3367,3.132,32.8862,13.3713,40.8367,11.9258,7.9505-1.4456,13.6123-2.8911,13.6123-2.8911,0,0,5.7822,5.3003,7.5891,5.3003h1.8069s1.7245-.3075,2.0986,1.937c.3741,2.2444,.1871,3.9277,.1871,3.9277h74.4403l1.3093-7.1074s4.8629-1.4962,6.1722-2.8055c1.3092-1.3093,3.7407-2.9926,3.7407-2.9926,0,0,21.5091,2.4315,27.8684-.187,6.3592-2.6185,16.8332-6.7333,20.0128-8.4166,3.1796-1.6834,6.9204-5.6111,7.1074-7.1074s.37411-2.9926,.187-4.8629c-.187-1.8704,5.61111-12.7063,.18711-27.1081-5.42411-14.4018-7.66851-23.1925-7.66851-25.811s.5611-4.8629,.5611-4.8629c0,0,1.4963-1.8704,1.6833-3.3667l.18711-1.4963s-.56121-1.6833-4.30191-1.6833-6.94109,.9278-6.94109,.9278c0,0-1.09671-1.5353-3.29-2.7416-2.19331-1.2063-2.52231-1.316-2.85121-1.4257-.329-.1096-.4387-2.7416-.4387-3.0706s.7676-.1096,1.7546-.2193,3.0706-1.316,3.0706-2.6319c0-1.316-.54829-1.0967-2.0836-1.0967s-3.5093-.4386-5.3736-.1097c-1.8642,.329-2.3029,2.961-2.5222,3.7286-.2194,.7677-1.5353,6.4702-1.316,8.7732s.658,3.8383,2.8513,6.4702c2.1933,2.632,2.7416,3.1803,2.7416,3.1803,0,0,2.8513,12.2824,2.8513,18.7526s-2.632,14.6822-3.5093,17.4239l-.8773,2.7416s-5.3736-2.8513-13.2694-2.303c-7.8959,.5483-9.4312,.658-11.2955,.2193-1.8643-.4386-10.3598-5.0727-10.3598-5.0727Z" style="fill:#dedede; stroke:#263238; stroke-linecap:round; stroke-linejoin:round;"></path><path d="M458.93769,183.6543s1.9976,.7191,3.3559,.2397c1.35841-.4794,5.0339,1.1186,6.9516,.5593" style="fill:#dedede; stroke:#263238; stroke-linecap:round; stroke-linejoin:round;"></path><path d="M291.6127,173.8004s1.7108,1.6387,3.6587,1.8158" style="fill:none; stroke:#263238; stroke-linecap:round; stroke-linejoin:round;"></path><path d="M292.215,172.2344s1.663,.4606,2.8793-1.5766" style="fill:none; stroke:#263238; stroke-linecap:round; stroke-linejoin:round;"></path><path d="M317.3853,240.4849s-3.5669,2.7438-9.3289,2.7438" style="fill:none; stroke:#263238; stroke-linecap:round; stroke-linejoin:round;"></path><path d="M441.13089,241.5825s3.567-.2744,6.0364,0" style="fill:none; stroke:#263238; stroke-linecap:round; stroke-linejoin:round;"></path><path d="M294.5613,229.1952s-3.974,2.7887-5.1602,8.0082" style="fill:none; stroke:#263238; stroke-linecap:round; stroke-linejoin:round;"></path><path d="M461.91179,230.7662c1.1034,1.0331,2.1059,2.1667,2.8177,3.353" style="fill:none; stroke:#263238; stroke-linecap:round; stroke-linejoin:round;"></path><path d="M454.38349,225.4719s2.8504,1.4833,5.7038,3.7329" style="fill:none; stroke:#263238; stroke-linecap:round; stroke-linejoin:round;"></path><path d="M280.6977,188.9454c1.9982-.4404,3.4561-1.2476,4.622-1.179,1.3698,.0806,2.6589,1.128,3.7064,1.2086" style="fill:none; stroke:#263238; stroke-linecap:round; stroke-linejoin:round;"></path><path d="M286.0137,177.0601s-2.8126,2.6471-1.5442,5.184c1.2685,2.5368-.0202,2.2343-.0202,2.2343" style="fill:none; stroke:#263238; stroke-linecap:round; stroke-linejoin:round;"></path><path d="M457.23479,171.7937s-3.3023,.9156-3.8616,2.0342" style="fill:#dedede; stroke:#263238; stroke-linecap:round; stroke-linejoin:round;"></path><path d="M454.49189,168.4502s1.2525,.6571,2.3042,.0089" style="fill:#dedede; stroke:#263238; stroke-linecap:round; stroke-linejoin:round;"></path></g><g><path d="M334.95319,215.5232c-1.0511,.8069-1.67319,1.3111-1.67319,1.3111l-13.5058,8.3446s-4.2068-.4113-9.281-.1066c3.0356,4.5644,7.3706,12.8356,6.9035,22.3329-.4164,8.4664-2.7806,13.9245-4.6719,16.9999,.2901-.0229,.5615-.0566,.812-.1021,7.9505-1.4456,13.6123-2.8911,13.6123-2.8911,0,0,5.7822,5.3003,7.5891,5.3003h.215v-51.189Z" style="fill:#75CE36; stroke:#263238; stroke-linecap:round; stroke-linejoin:round;"></path><path d="M429.81859,223.3882c-1.8643-.4386-10.3598-5.0727-10.3598-5.0727,0,0-2.1677-1.6088-5.3097-3.734,.1696,1.9566,.3478,5.2169,.04591,8.3868-.47451,4.9823,1.18629,40.8072,1.18629,40.8072l1.5899,.8601c1.4287-.5469,3.09381-1.2841,3.7814-1.9716,1.3092-1.3093,3.7407-2.9926,3.7407-2.9926,0,0,8.9962,1.0156,17.0731,1.0257-.3022-7.6176-.9185-25.801-.4523-37.5282-7.8959,.5484-9.4312,.658-11.2955,.2193Z" style="fill:#75CE36; stroke:#263238; stroke-linecap:round; stroke-linejoin:round;"></path><path d="M413.27109,272.5769l1.3093-7.1074s2.6191-.8073,4.5308-1.7543v-45.6549c-2.1196-1.5478-13.5281-9.7501-21.1971-12.6716-8.4833-3.2317-19.5249,1.0772-24.1032,1.0772s-11.9842-4.8476-20.1981-2.1545c-6.3594,2.0851-15.0551,8.4448-18.6596,11.2118l-.3631,51.166c.0481,.006,.1044,.023,.1481,.023h1.8069s1.7246-.3075,2.0986,1.937c.3741,2.2444,.1871,3.9277,.1871,3.9277h74.4403Z" style="fill:#fff; stroke:#263238; stroke-linecap:round; stroke-linejoin:round;"></path><g><path d="M341.79759,244.9338s-2.7968,5.9932-3.3295,10.7877,.1756,12.9277,.1756,12.9277c0,0,.7567-12.7945,7.0162-20.6522s12.5177-9.7091,23.9054-11.6468c11.38771-1.9377,.4668-7.3982-7.7904-5.4005-8.2573,1.9978-16.3814,6.5259-19.9773,13.9841Z" style="fill:#263238; stroke:#263238; stroke-linecap:round; stroke-linejoin:round;"></path><g><path d="M374.87889,224.4304s-3.4467-1.2925-6.1753-1.7233c-2.72859-.4308-9.4783-1.1489-14.0739,2.585s-12.6378,12.925-14.0739,15.3664-1.5797,7.6114,1.2925,8.6167,4.16471,1.1489,4.5955,.1436c.4309-1.0052,9.19121-11.4889,12.0634-13.6431,2.8722-2.1541,6.7497-1.0052,8.0422-.4308,1.2925,.5745,3.0159,1.0053,3.0159,1.0053,0,0,.1436,.4308,2.0105-.8617,1.867-1.2925,4.452-3.4466,4.5956-5.7444,.14361-2.2978,0-4.452,0-5.0264,0-.5745-1.2925-.2873-1.2925-.2873Z" style="fill:#7d7d7d; stroke:#263238; stroke-linecap:round; stroke-linejoin:round;"></path><g><ellipse cx="365.91749" cy="224.3455" rx=".7831" ry=".5422" style="fill:#263238;"></ellipse><path d="M366.64039,227.5986c0,.2994-.3506,.5421-.7831,.5421-.4326,0-.7832-.2427-.7832-.5421,0-.2995,.3506-.5422,.7832-.5422,.4325,0,.7831,.2427,.7831,.5422Z" style="fill:#263238;"></path></g><g><path d="M358.16779,226.3616c.0391,.2969-.27679,.5834-.7056,.6399-.4288,.0565-.8081-.1383-.8473-.4352-.0391-.2968,.2768-.5833,.7056-.6398,.4288-.0566,.8081,.1383,.8473,.4351Z" style="fill:#263238;"></path><path d="M358.53319,229.5947c.0391,.2968-.2768,.5833-.7056,.6398s-.8082-.1383-.8473-.4352c-.0391-.2968,.2768-.5833,.7056-.6398s.80811,.1383,.8473,.4352Z" style="fill:#263238;"></path></g><path d="M372.79569,233.1082s-4.2685-3.0018-8.6252-3.1602c-4.3567-.1585-14.901,8.309-17.7526,12.9034-2.5797,4.1561-5.1518,5.5208-5.6205,5.7441,.29361,.2965,.63761,.5351,1.0509,.6797,2.8722,1.0053,4.16471,1.1489,4.5956,.1436,.4308-1.0052,9.19111-11.4889,12.0633-13.6431,2.8722-2.1541,6.74981-1.0052,8.0422-.4308,1.2925,.5745,3.0159,1.0053,3.0159,1.0053,0,0,.1436,.4308,2.0105-.8617,.7285-.5043,1.565-1.141,2.3243-1.8649l-1.1044-.5154Z" style="fill:#263238; stroke:#263238; stroke-linecap:round; stroke-linejoin:round;"></path></g><path d="M374.87889,224.4304l.4308,8.0423-7.4678,3.4467s.2873,2.0105,3.0159,.718,6.3189-2.8722,6.8933-4.0211c.5745-1.1489-.1436-7.8986-.8616-8.9039-.7181-1.0053-3.87749,0-3.87749,0l1.86689,.718Z" style="fill:#fff; stroke:#263238; stroke-linecap:round; stroke-linejoin:round;"></path><path d="M375.72329,228.6315s-2.3326-.2332-2.6242,.6415,.175,1.1663,1.108,1.1079c.933-.0583,2.2742-.0583,2.3326-.9913,.05831-.933-.8164-.7581-.8164-.7581Z" style="fill:#fff; stroke:#263238; stroke-linecap:round; stroke-linejoin:round;"></path><path d="M374.49869,224.3746s-1.9244,.5831-1.8661,1.4578,.4665,1.0497,.8747,.8164c.4082-.2332,1.3996-.8164,1.8078-.933s1.7494-.3499,1.4578-.933c-.2916-.5832-1.2246-.8747-2.2742-.4082Z" style="fill:#fff; stroke:#263238; stroke-linecap:round; stroke-linejoin:round;"></path><path d="M375.64649,234.5666s9.5703-2.6783,19.3677,3.6947c9.7973,6.373,13.2151,15.0096,13.976,20.2412,.761,5.2316,1.6604,7.8341,1.4701,8.9756-.1902,1.1414-.1902,2.2829-.1902,2.2829l3.3292,2.0926s-.8561-12.7461-1.617-17.4069c-.761-4.6609-1.4701-9.4826-4.79929-14.6191-3.32921-5.1365-8.681-9.2645-18.193-11.9278-9.512-2.6634-11.44111-2.0842-11.44111-2.0842,0,0,1.4268,8.0852-1.9024,8.751Z" style="fill:#7d7d7d; stroke:#263238; stroke-linecap:round; stroke-linejoin:round;"></path><g><path d="M383.42749,228.3761c-.0009,.2995-.3523,.5411-.7848,.5397-.4325-.0013-.7824-.2451-.7815-.5446,.001-.2994,.3524-.5411,.7849-.5397,.4325,.0013,.7823,.2452,.7814,.5446Z" style="fill:#263238;"></path><path d="M383.35709,231.629c-.0009,.2994-.3523,.541-.7848,.5397-.4326-.0014-.7824-.2452-.7815-.5446,.001-.2995,.3523-.5411,.7849-.5398,.4325,.0014,.78231,.2452,.7814,.5447Z" style="fill:#263238;"></path></g><g><path d="M391.22239,230.3397c-.0478,.2956-.4327,.4792-.8597,.4101-.427-.0692-.7343-.3648-.6864-.6604s.4328-.4792,.85971-.41c.427,.0691,.73429,.3648,.68639,.6603Z" style="fill:#263238;"></path><path d="M390.643,233.5413c-.04791,.2956-.43281,.4792-.85971,.4101-.427-.0692-.73429-.3648-.6864-.6604,.0478-.2956,.4327-.4792,.8597-.41,.427,.0691,.7343,.3648,.68641,.6603Z" style="fill:#263238;"></path></g></g><path d="M321.5578,229.9241s2.5623,9.7832,3.4781,20.2775" style="fill:none; stroke:#263238; stroke-linecap:round; stroke-linejoin:round;"></path><path d="M321.7384,239.135s1.0837,7.5855,1.2643,17.3383" style="fill:none; stroke:#263238; stroke-linecap:round; stroke-linejoin:round;"></path><path d="M426.46589,237.0557c-.51089,5.7572-1.1986,13.0439-1.7817,17.6115" style="fill:none; stroke:#263238; stroke-linecap:round; stroke-linejoin:round;"></path><path d="M427.21269,228.2986s-.2151,2.6624-.54169,6.4203" style="fill:none; stroke:#263238; stroke-linecap:round; stroke-linejoin:round;"></path><path d="M429.38,226.4926s-.36121,9.5721-1.26431,18.0606" style="fill:none; stroke:#263238; stroke-linecap:round; stroke-linejoin:round;"></path></g><path d="M283.4666,166.7925s-1.3698-1.3697-2.9006-.6446c-1.5309,.7252-1.692,1.8532-1.6115,3.6258,.0806,1.7726,.2417,3.8675,1.3698,4.512,1.128,.6446,2.4171,.1612,3.1423,0,.7251-.1611-.2417-2.9811-.2417-4.4314s.2417-3.0618,.2417-3.0618Z" style="fill:#dedede; stroke:#263238; stroke-linecap:round; stroke-linejoin:round;"></path><path d="M278.7934,168.0011s-.9669-1.5309-3.2229,0-1.4503,2.9006-.6446,3.7869,2.256,1.2086,3.1423,.8057c.8863-.4028,.9669-1.0474,.9669-1.0474l-.2417-3.5452Z" style="fill:#dedede; stroke:#263238; stroke-linecap:round; stroke-linejoin:round;"></path><path d="M348.75329,265.0236s-3.1467-.5035-9.0625,3.2726c-5.91579,3.776-5.0347,12.4609-5.5382,14.0972-.5034,1.6363-4.1063,10.2012-4.8287,19.0509s2.5285,21.4922,2.5285,21.4922c0,0-1.2642,20.2279,4.5152,19.1443,5.77941-1.0836,19.5055-23.2983,19.5055-23.2983,0,0,2.1673-.1806,4.5152-2.1672,2.3478-1.9867,7.2242-6.6825,8.1272-11.1976l3.9734-5.057,5.7794,.1806,2.1673,5.5988s-1.2643,2.7091,1.62541,8.1273c2.88979,5.4182,11.73949,6.5018,11.73949,6.5018,0,0,22.937,19.5055,27.091,21.8534,4.1539,2.3479-1.0837-18.0606,.1806-19.5055,1.2642-1.4448,2.5285-2.8897,1.9866-5.7794-.5418-2.8897-.3612-8.6691-1.806-11.1976-1.4449-2.5285-2.1673-3.6121-2.1673-3.6121,0,0,2.7091-4.6958,1.6255-8.308l-1.0837-3.6121s1.2643-6.5018-1.6254-13.1843c-2.8897-6.6824-10.2946-9.5721-16.074-15.7127-5.7794-6.1407-14.9904-8.8498-30.3419-6.5019-15.3516,2.3479-20.01889,8.9734-22.8326,9.8146Z" style="fill:#75CE36; stroke:#263238; stroke-linecap:round; stroke-linejoin:round;"></path><path d="M340.65779,307.4995s6.3077,3.3965,8.49121,6.793c2.18349,3.3965,2.18349,11.6451,2.18349,11.6451l4.5406-7.1551s-1.14409-6.9161-4.298-9.5848c-3.1539-2.6687-4.367-3.1539-4.367-3.1539l-6.5503,1.4557Z" style="fill:#263238; stroke:#263238; stroke-linecap:round; stroke-linejoin:round;"></path><path d="M418.29189,314.7777s-7.7634,3.3965-8.9764,7.0356,.9704,12.3729,.9704,12.3729l-6.793-5.8225s-.7278-11.4026,2.1835-13.586c2.9113-2.1835,6.3078-3.1539,6.3078-3.1539l6.3077,3.1539Z" style="fill:#263238; stroke:#263238; stroke-linecap:round; stroke-linejoin:round;"></path><path d="M394.03129,284.937s-6.3078,6.3078-8.9765,14.5565c-2.6687,8.2486-2.99379,14.7739-2.99379,14.7739l-3.79271-13.7261-5.7794-.1806-6.8426,10.2927s4.1243-12.6156,0-19.4086c-4.12429-6.793-8.49129-8.2486-8.49129-8.2486l36.87629,1.9408Z" style="fill:#263238; stroke:#263238; stroke-linecap:round; stroke-linejoin:round;"></path><path d="M316.3202,314.2674s-10.8364,20.7697-11.7394,23.4788-1.6255,8.4885-1.0836,10.2946c.5418,1.8061,.5418,2.7091,.5418,2.7091,0,0,9.2109-19.5055,13.5455-26.7298,4.3345-7.2242,11.7394-14.0873,14.9903-14.4485,3.251-.3612,89.0391,5.4182,92.8318,7.9467,3.7928,2.5285,12.8231,11.92,15.5322,16.074,2.7091,4.1539,5.96,5.5988,7.0437,8.6691,1.0836,3.0703,2.1672,6.3212,2.1672,6.3212,0,0,.1806-8.3079-1.0836-11.1976s-20.5892-25.1043-27.994-27.2716c-7.4049-2.1673-22.3952-1.9866-27.8134-3.0703-5.4182-1.0836-51.2923-4.5151-59.9614-4.3345-8.6692,.1806-16.9771,11.5588-16.9771,11.5588Z" style="fill:#fff; stroke:#263238; stroke-linecap:round; stroke-linejoin:round;"></path><path d="M305.1546,335.9432s18.3899-34.8601,22.3632-39.3753c3.9734-4.5151,8.8917-8.0645,24.7851-9.69s34.2076-.9704,51.9179,1.4556c10.7949,1.4788,26.7846,19.6126,28.4101,21.7799s13.6983,19.0919,14.6013,21.4398l-.87519-8.7973s-17.69951-27.091-29.25831-35.5795-26.5491-8.1273-37.7468-8.1273-22.7087-1.177-33.954,1.0836c-11.2453,2.2607-18.7831,6.1407-22.034,11.9201-3.25089,5.7794-15.1496,32.7158-15.1496,32.7158l-3.0597,11.1746Z" style="fill:#fff; stroke:#263238; stroke-linecap:round; stroke-linejoin:round;"></path><path d="M365.77619,271.679c.91081,1.017,1.7753,2.2005,2.5587,3.5774" style="fill:none; stroke:#263238; stroke-linecap:round; stroke-linejoin:round;"></path><path d="M351.71909,265.5036s5.8443-.3962,11.2973,3.653" style="fill:none; stroke:#263238; stroke-linecap:round; stroke-linejoin:round;"></path><path d="M393.68319,264.5741c-2.0755-.8132-3.9177-1.6695-5.1203-2.502" style="fill:none; stroke:#263238; stroke-linecap:round; stroke-linejoin:round;"></path><path d="M407.70719,268.9351s-5.7383-1.4345-11.1576-3.3092" style="fill:none; stroke:#263238; stroke-linecap:round; stroke-linejoin:round;"></path><path d="M397.41259,262.7945s5.5988,2.5285,7.9467,4.3346" style="fill:none; stroke:#263238; stroke-linecap:round; stroke-linejoin:round;"></path><path d="M365.98709,261.7109s-6.1407-.3613-13.1843,2.1672" style="fill:none; stroke:#263238; stroke-linecap:round; stroke-linejoin:round;"></path><path d="M401.02469,270.7412s-9.5721,.903-13.5455,7.0436" style="fill:none; stroke:#263238; stroke-linecap:round; stroke-linejoin:round;"></path><g><path d="M328.05969,287.357s-4.154-.1806-7.4049,3.0703-7.7661,12.6425-7.5855,21.3116,3.9734,17.5188,4.3346,23.6595c.3612,6.1406,.1806,10.6557,3.2509,11.92,3.0703,1.2642,12.8231,2.5285,15.171,.1806,2.3478-2.3479,4.5151-16.4352,4.3345-21.6728s-3.4315-13.3649-3.4315-14.2679c0-.9031,.5418-12.1007-1.2643-16.4352-1.806-4.3346-5.2376-7.7661-7.4048-7.7661Z" style="fill:#263238; stroke:#263238; stroke-linecap:round; stroke-linejoin:round;"></path><path d="M340.16029,325.8262c-.1806-5.2376-3.4315-13.3649-3.4315-14.2679,0-.438,.1268-3.2987,.0521-6.6222l-.2327-.0603s-3.9733,11.017-4.6958,18.0607c-.72239,7.0437,2.8897,7.5854,3.43161,16.074,.17139,2.6865,.63249,5.3537,1.13089,7.6491,2.1077-3.83,3.9108-16.0379,3.7454-20.8334Z" style="fill:#7d7d7d; stroke:#263238; stroke-linecap:round; stroke-linejoin:round;"></path></g><g><path d="M429.92709,287.357s4.15391-.1806,7.40491,3.0703c3.25089,3.2509,7.766,12.6425,7.58539,21.3116-.1806,8.6691-3.9733,17.5188-4.3345,23.6595-.3612,6.1406-.1806,10.6557-3.25089,11.92-3.07041,1.2642-12.82311,2.5285-15.171,.1806-2.34791-2.3479-4.51521-16.4352-4.33461-21.6728,.1807-5.2376,3.43161-13.3649,3.43161-14.2679,0-.9031-.54181-12.1007,1.26419-16.4352,1.8061-4.3346,5.2376-7.7661,7.4049-7.7661Z" style="fill:#263238; stroke:#263238; stroke-linecap:round; stroke-linejoin:round;"></path><path d="M417.82649,325.8262c.18051-5.2376,3.43151-13.3649,3.43151-14.2679,0-.438-.12691-3.2987-.05211-6.6222l.2327-.0603s3.9733,11.017,4.6957,18.0607c.7225,7.0437-2.8896,7.5854-3.4315,16.074-.1715,2.6865-.6326,5.3537-1.131,7.6491-2.1077-3.83-3.9107-16.0379-3.7453-20.8334Z" style="fill:#7d7d7d; stroke:#263238; stroke-linecap:round; stroke-linejoin:round;"></path></g><g><line x1="174.844" y1="113.9628" x2="206.3911" y2="113.9628" style="fill:none; stroke:#263238; stroke-linecap:round; stroke-linejoin:round;"></line><line x1="168.8031" y1="109.2643" x2="180.885" y2="109.2643" style="fill:none; stroke:#263238; stroke-linecap:round; stroke-linejoin:round;"></line></g><g><line x1="572.20359" y1="113.9628" x2="540.65649" y2="113.9628" style="fill:none; stroke:#263238; stroke-linecap:round; stroke-linejoin:round;"></line><line x1="578.24459" y1="109.2643" x2="566.16269" y2="109.2643" style="fill:none; stroke:#263238; stroke-linecap:round; stroke-linejoin:round;"></line></g></g><path d="M236.7445,173.2965h10.6899V436.1375c0,1.32857-1.07863,2.4072-2.4072,2.4072h-5.8755c-1.32857,0-2.4072-1.07863-2.4072-2.4072V173.2965h0Z" style="fill:#263238; stroke:#263238; stroke-linecap:round; stroke-linejoin:round;"></path><path d="M502.32029,173.2965h10.6898V436.13761c0,1.32851-1.07858,2.40709-2.40709,2.40709h-5.87551c-1.32857,0-2.4072-1.07863-2.4072-2.4072V173.2965h0Z" style="fill:#263238; stroke:#263238; stroke-linecap:round; stroke-linejoin:round;"></path></g></g></svg>
