<svg xmlns="http://www.w3.org/2000/svg" viewBox="0 0 500 500"><g id="freepik--Streetlight--inject-65"><polygon points="442.77 451.33 432.93 451.33 434.4 201.53 441.29 201.53 442.77 451.33" style="fill:#263238"></polygon><polygon points="445.52 200.32 429.54 200.32 427.54 176.84 447.52 176.84 445.52 200.32" style="fill:#263238"></polygon><polygon points="443.74 200.32 431.32 200.32 429.77 176.84 445.29 176.84 443.74 200.32" style="fill:#fff"></polygon><rect x="425.98" y="174.68" width="23.23" height="3.91" style="fill:#263238"></rect><rect x="427.8" y="197.77" width="19.57" height="4.83" style="fill:#263238"></rect><rect x="429.11" y="172.07" width="16.7" height="2.61" style="fill:#263238"></rect><rect x="435.65" y="168.18" width="2.87" height="3.91" style="fill:#263238"></rect><rect x="429.38" y="436.4" width="17.32" height="21.02" style="fill:#263238"></rect></g><g id="freepik--Bench--inject-65"><path d="M356.82,394.29a3.24,3.24,0,0,1-3.15-2.49c-.75-3.18-.41-5.83,1-7.9a7.78,7.78,0,0,1,5.12-3.16,2.83,2.83,0,0,1,.41,0h53.36a3.24,3.24,0,0,1,0,6.48h-53a1.11,1.11,0,0,0-.58.43c-.15.23-.44.94,0,2.68s.58,3.48-1.16,3.9C358.56,394.26,357.07,394.29,356.82,394.29Z" style="fill:#fff;stroke:#263238;stroke-linecap:round;stroke-linejoin:round"></path><path d="M359,394.29a3.24,3.24,0,0,1-3.15-2.49c-.75-3.18-.41-5.83,1-7.9a7.78,7.78,0,0,1,5.12-3.16,2.83,2.83,0,0,1,.41,0h53.36a3.24,3.24,0,0,1,0,6.48h-53a1.11,1.11,0,0,0-.58.43c-.15.23-.44.94,0,2.68a3.24,3.24,0,0,1-2.4,3.9A3.2,3.2,0,0,1,359,394.29Z" style="fill:#263238"></path><line x1="382.77" y1="410.25" x2="386.63" y2="385.19" style="fill:none;stroke:#263238;stroke-linecap:round;stroke-linejoin:round;stroke-width:4px"></line><path d="M455.14,457.43h4.11l-8-45.16,16.06-57.73-3.83-1.07-16.2,58.24a2,2,0,0,0,0,1Z" style="fill:#263238;stroke:#263238;stroke-linecap:round;stroke-linejoin:round"></path><path d="M399.41,457.43l6.73-43.2h43.07v-4H404.55a2,2,0,0,0-1.94,1.56l-7.28,45.62Z" style="fill:#263238;stroke:#263238;stroke-linecap:round;stroke-linejoin:round"></path><path d="M358,457.43l6.74-43.2H407.8v-4H363.14a2,2,0,0,0-1.95,1.56l-7.28,45.62Z" style="fill:#263238;stroke:#263238;stroke-linecap:round;stroke-linejoin:round"></path><path d="M413.73,457.43h4.1l-8-45.16,16.06-57.73-3.83-1.07-16.21,58.24a2.07,2.07,0,0,0,0,1Z" style="fill:#263238;stroke:#263238;stroke-linecap:round;stroke-linejoin:round"></path><polygon points="417.16 358.57 471.82 358.57 474 350.94 419.34 350.94 417.16 358.57" style="fill:#263238;stroke:#263238;stroke-linecap:round;stroke-linejoin:round"></polygon><polygon points="413.77 370.4 468.43 370.4 470.62 362.77 415.95 362.77 413.77 370.4" style="fill:#263238;stroke:#263238;stroke-linecap:round;stroke-linejoin:round"></polygon><polygon points="410.38 382.22 465.05 382.22 467.23 374.59 412.57 374.59 410.38 382.22" style="fill:#263238;stroke:#263238;stroke-linecap:round;stroke-linejoin:round"></polygon><polygon points="407 394.04 461.66 394.04 463.85 386.42 409.18 386.42 407 394.04" style="fill:#263238;stroke:#263238;stroke-linecap:round;stroke-linejoin:round"></polygon><polygon points="403.61 405.87 458.28 405.87 460.46 398.24 405.8 398.24 403.61 405.87" style="fill:#263238;stroke:#263238;stroke-linecap:round;stroke-linejoin:round"></polygon><polygon points="414.6 358.57 469.26 358.57 471.44 350.94 416.78 350.94 414.6 358.57" style="fill:#fff;stroke:#263238;stroke-linecap:round;stroke-linejoin:round"></polygon><polygon points="411.21 370.4 465.87 370.4 468.06 362.77 413.39 362.77 411.21 370.4" style="fill:#fff;stroke:#263238;stroke-linecap:round;stroke-linejoin:round"></polygon><polygon points="407.82 382.22 462.49 382.22 464.67 374.59 410.01 374.59 407.82 382.22" style="fill:#fff;stroke:#263238;stroke-linecap:round;stroke-linejoin:round"></polygon><polygon points="404.44 394.04 459.1 394.04 461.29 386.42 406.62 386.42 404.44 394.04" style="fill:#fff;stroke:#263238;stroke-linecap:round;stroke-linejoin:round"></polygon><polygon points="401.06 405.87 455.72 405.87 457.9 398.24 403.24 398.24 401.06 405.87" style="fill:#fff;stroke:#263238;stroke-linecap:round;stroke-linejoin:round"></polygon><rect x="359.63" y="409.62" width="96.19" height="4.38" style="fill:#fff;stroke:#263238;stroke-linecap:round;stroke-linejoin:round"></rect><rect x="404.2" y="409.62" width="51.62" height="4.38" style="fill:#263238;stroke:#263238;stroke-linecap:round;stroke-linejoin:round"></rect><line x1="423.62" y1="410.25" x2="427.49" y2="385.19" style="fill:none;stroke:#263238;stroke-linecap:round;stroke-linejoin:round;stroke-width:4px"></line><path d="M404.63,394.29a3.23,3.23,0,0,1-3.14-2.49c-.76-3.18-.41-5.83,1-7.9a7.76,7.76,0,0,1,5.12-3.16,2.69,2.69,0,0,1,.4,0H461.4a3.24,3.24,0,0,1,0,6.48h-53a1.17,1.17,0,0,0-.59.43c-.14.23-.43.94,0,2.68s.95,3.48-.79,3.9C406.75,394.26,404.88,394.29,404.63,394.29Z" style="fill:#fff;stroke:#263238;stroke-linecap:round;stroke-linejoin:round"></path><path d="M407.1,394.29A3.25,3.25,0,0,1,404,391.8c-.75-3.18-.41-5.83,1-7.9a7.76,7.76,0,0,1,5.12-3.16,2.69,2.69,0,0,1,.4,0h53.37a3.24,3.24,0,0,1,0,6.48h-53a1.13,1.13,0,0,0-.59.43c-.14.23-.44.94,0,2.68a3.24,3.24,0,0,1-2.4,3.9A3.35,3.35,0,0,1,407.1,394.29Z" style="fill:#263238;stroke:#263238;stroke-linecap:round;stroke-linejoin:round"></path></g><g id="freepik--Dog--inject-65"><path d="M256.19,387.71s1.61,11.78,4.56,18.73,6.58,20.81,6.53,24.13-7.62,15.82-10.23,19.1-6.22,5.27-5.22,6.82,4.34.33,5.89-.93,6.24-8.31,8.07-10.58,7.53-8.69,9.41-14.28-1.36-11-.24-17.39,6.66-17,6.66-17,4-10.93-6.94-13.66S256.19,387.71,256.19,387.71Z" style="fill:#fff;stroke:#263238;stroke-linecap:round;stroke-linejoin:round"></path><path d="M274.68,382.63c-10.95-2.73-18.49,5.08-18.49,5.08A114.67,114.67,0,0,0,259,401.15a102.47,102.47,0,0,1,15.77,8.56c.32.21.65.41,1,.6a98.57,98.57,0,0,1,5.92-14S285.63,385.36,274.68,382.63Z" style="fill:#263238;stroke:#263238;stroke-linecap:round;stroke-linejoin:round"></path><path d="M218.5,411.4s7.27,25.16,8.23,29.52.37,10.47-1.18,11.47-6.16,1.69-5.17,3.75,6.89.62,7.67-.14,4.8-14.21,4.85-17.28-5.14-14.9-4.54-20.26,4.38-18.59,4.91-19.61-7.81-7.53-12.75-2S218.5,411.4,218.5,411.4Z" style="fill:#fff;stroke:#263238;stroke-linecap:round;stroke-linejoin:round"></path><path d="M220.52,396.86c-5,5.55-2,14.54-2,14.54s.79,2.73,1.88,6.54a25.76,25.76,0,0,1,8.28-6.6l1.24-.61c1.32-5.45,3-11.22,3.37-11.88C233.8,397.84,225.46,391.32,220.52,396.86Z" style="fill:#263238;stroke:#263238;stroke-linecap:round;stroke-linejoin:round"></path><path d="M195.11,338.69s1.55-1.51-.39-7.93-2.93-8.48-3-6.43a62.06,62.06,0,0,1-.4,9.19c-.59,5.11-.09,5.88,1.69,6.42A1.53,1.53,0,0,0,195.11,338.69Z" style="fill:#263238;stroke:#263238;stroke-linecap:round;stroke-linejoin:round"></path><path d="M297.05,373.78s7,8.8,10.78,13.46,9.27,11.91,20.21,15.4,15.3,2.54,14.77,3.82c-1.16,2.69-17.1-3.19-19.2-4.13-11.09-4.93-18.25-12.9-26.93-20.89" style="fill:#263238;stroke:#263238;stroke-linecap:round;stroke-linejoin:round"></path><path d="M313.5,455.85c-2.08,2-6.67,1.43-7.15-.37s1.3-1.76,2.6-2.77,1.3-7.4,1.34-10.22-6.37-17.48-9.92-19.07-13.19-7.1-18.47-12.55S271.22,391,271.22,391a39.9,39.9,0,0,0-11-.68c-6.65.4-15.2,7.43-21.13,10.91s-14.05-.73-14.83.28-1.43,10-2,11.22-9.86,9-13.5,12.57-9.33,8.29-9.36,10.33-.11,7.15.88,9.22,2.74,4.39,2.44,7.19-2.37,4.82-4.16,4.53-2.94-8.22-2.87-12.56-1.15-8.21-1.11-10.5,6-6.81,9.65-12.38,3.45-7.61,3.45-7.61-1.09-12.29-3.32-17.18-6.61-18-7.07-21.58-12.7-21.42-12.7-21.42a9.09,9.09,0,0,0-3-1.32,83.51,83.51,0,0,0-9.23,1.64c-1.8.48-5.14,2-5.37-.08s3.1-2.25,4.64-2.23,3.58-.45,3.6-1.48-6.65.15-7.41.14-4.86-.84-5.34-1.87-1.94-6.93-1.65-9.23,2.32-1.75,3.35-1.73,10-.87,10-.87l.27-.76c.16-.48,2.64-2.39,5-3.69a8.59,8.59,0,0,1,3.51-1.29c2.29,0,10.9,5,10.9,5s3,3.88,4.52,5.69a36.78,36.78,0,0,0,21.78,12.61c13,2.25,21.43,2.39,29.39.46s15.9-3.32,24.31-1.91,22.24,16.2,23.18,21.32,1,15.36.88,25.83,4.88,16.32,7.19,19.78c2.08,3.1,10.18,13.72,9.86,17.56S315.57,453.84,313.5,455.85Z" style="fill:#fff;stroke:#263238;stroke-linecap:round;stroke-linejoin:round"></path><path d="M187.42,323.24l.91,7.68s-2.12,4.57-1.91,7.38,3.75,5.17,5.58,2.65.17-10.48-1.29-15.36S187.48,319.4,187.42,323.24Z" style="fill:#263238;stroke:#263238;stroke-linecap:round;stroke-linejoin:round"></path><path d="M181.54,339.76c-.85,5.61-5.7,5-7,3.46s-.4-6.9-.4-6.9l.27-.76c.16-.48,2.64-2.39,5-3.69A9.64,9.64,0,0,1,181.54,339.76Z" style="fill:#263238;stroke:#263238;stroke-linecap:round;stroke-linejoin:round"></path><path d="M176.79,337.53c-.16.74-.59,1.27-1,1.19s-.54-.75-.38-1.49.6-1.27,1-1.19S177,336.79,176.79,337.53Z" style="fill:#fff"></path><path d="M164.2,337.19,161.55,343a5.5,5.5,0,0,1-.7-4.1C161.4,336.63,163.17,337.18,164.2,337.19Z" style="fill:#263238;stroke:#263238;stroke-linecap:round;stroke-linejoin:round"></path><path d="M188.44,359l1.18,1.82,15.53-13.26c-.68-.49-1.3-1-1.87-1.44Z" style="fill:#75CE36;stroke:#263238;stroke-linecap:round;stroke-linejoin:round"></path><path d="M230.4,366.55c0,2.56-3.29,4.59-7.26,4.53s-7.16-2.19-7.12-4.75,3.29-4.59,7.26-4.53S230.44,364,230.4,366.55Z" style="fill:#263238;stroke:#263238;stroke-linecap:round;stroke-linejoin:round"></path><path d="M245,362.49c0,.44-1.37.78-3.05.75s-3-.41-3-.85,1.38-.77,3.05-.75S245,362.05,245,362.49Z" style="fill:#263238;stroke:#263238;stroke-linecap:round;stroke-linejoin:round"></path><path d="M240.06,372.48c0,1.24-1.32,2.22-2.91,2.2s-2.86-1.05-2.84-2.29,1.32-2.21,2.91-2.19S240.08,371.25,240.06,372.48Z" style="fill:#263238;stroke:#263238;stroke-linecap:round;stroke-linejoin:round"></path><path d="M260.2,373a3.37,3.37,0,1,1-3.31-3.09A3.2,3.2,0,0,1,260.2,373Z" style="fill:#263238;stroke:#263238;stroke-linecap:round;stroke-linejoin:round"></path><path d="M267.44,360c0,.8-1.24,1.42-2.74,1.4s-2.7-.69-2.69-1.48,1.24-1.42,2.74-1.4S267.46,359.17,267.44,360Z" style="fill:#263238;stroke:#263238;stroke-linecap:round;stroke-linejoin:round"></path><path d="M286.26,362.82a3.52,3.52,0,1,1-3.46-3.41A3.43,3.43,0,0,1,286.26,362.82Z" style="fill:#263238;stroke:#263238;stroke-linecap:round;stroke-linejoin:round"></path><path d="M277.1,376.42a2.25,2.25,0,1,1-2.2-2.43A2.33,2.33,0,0,1,277.1,376.42Z" style="fill:#263238;stroke:#263238;stroke-linecap:round;stroke-linejoin:round"></path><path d="M290.8,379.2c0,.79-1.24,1.42-2.74,1.39s-2.7-.68-2.69-1.48,1.24-1.42,2.74-1.39S290.82,378.4,290.8,379.2Z" style="fill:#263238;stroke:#263238;stroke-linecap:round;stroke-linejoin:round"></path><path d="M261.32,383.21c0,.44-.51.79-1.13.78s-1.11-.37-1.11-.81.52-.8,1.14-.79S261.33,382.77,261.32,383.21Z" style="fill:#263238;stroke:#263238;stroke-linecap:round;stroke-linejoin:round"></path><path d="M223,377.49c0,.44-1.16.78-2.57.76s-2.55-.4-2.55-.84,1.16-.78,2.57-.76S223,377.05,223,377.49Z" style="fill:#263238;stroke:#263238;stroke-linecap:round;stroke-linejoin:round"></path><path d="M237.67,382.52c0,.62-.88,1.1-1.94,1.09s-1.91-.53-1.9-1.15.88-1.11,1.94-1.09S237.68,381.9,237.67,382.52Z" style="fill:#263238;stroke:#263238;stroke-linecap:round;stroke-linejoin:round"></path><path d="M208.33,356.8a1.47,1.47,0,1,1-1.41-1.79A1.61,1.61,0,0,1,208.33,356.8Z" style="fill:#263238;stroke:#263238;stroke-linecap:round;stroke-linejoin:round"></path><path d="M217.91,357.75c0,.7-.95,1.26-2.1,1.24s-2.06-.6-2.05-1.31,1-1.26,2.09-1.25S217.92,357,217.91,357.75Z" style="fill:#263238;stroke:#263238;stroke-linecap:round;stroke-linejoin:round"></path><path d="M195.38,346.68c0,.79-.38,1.43-.82,1.42s-.79-.65-.78-1.45.38-1.43.83-1.42S195.39,345.88,195.38,346.68Z" style="fill:#263238;stroke:#263238;stroke-linecap:round;stroke-linejoin:round"></path><path d="M186.44,345.74c0,.18-.36.31-.8.31s-.8-.16-.8-.34.37-.31.81-.3S186.45,345.56,186.44,345.74Z" style="fill:#263238;stroke:#263238;stroke-linecap:round;stroke-linejoin:round"></path><path d="M221.58,389.14c0,.18-.73.31-1.61.3s-1.59-.17-1.59-.35.72-.31,1.6-.29S221.58,389,221.58,389.14Z" style="fill:#263238;stroke:#263238;stroke-linecap:round;stroke-linejoin:round"></path><path d="M285.46,393.82c0,.45-.59.79-1.29.78s-1.28-.38-1.27-.82.59-.79,1.29-.78S285.46,393.38,285.46,393.82Z" style="fill:#263238;stroke:#263238;stroke-linecap:round;stroke-linejoin:round"></path><path d="M291.94,408.8c0,.88-1.1,1.58-2.43,1.56s-2.38-.76-2.37-1.64,1.1-1.58,2.42-1.56S292,407.91,291.94,408.8Z" style="fill:#263238;stroke:#263238;stroke-linecap:round;stroke-linejoin:round"></path><path d="M216.9,401.7c0,.62-1,1.1-2.25,1.08s-2.23-.53-2.22-1.15,1-1.1,2.25-1.09S216.91,401.08,216.9,401.7Z" style="fill:#263238;stroke:#263238;stroke-linecap:round;stroke-linejoin:round"></path><path d="M207.88,385.41c0,.17-.43.31-1,.3s-1-.16-.95-.33.43-.31,1-.31S207.89,385.23,207.88,385.41Z" style="fill:#263238;stroke:#263238;stroke-linecap:round;stroke-linejoin:round"></path></g><g id="freepik--character-1--inject-65"><path d="M95.38,296.88s1.19,40.54,1.78,50.38,3.58,18.19,3.58,24.45-4.47,16.7-3.28,27.13,6.26,30.11,6.86,34.29-.89,7.45,1.19,9.54,10.14,1.49,12.23,0,2.68-3.88,2.68-7.16-.89-11-.89-13.11,1.78-31,1.78-37.27a117.59,117.59,0,0,1,.9-13.12s1.19-8.65,1.19-12.23,1.79-29.51,1.79-29.51,0,37.27,1.19,44.42,2.69,17,2.69,20.87.89,23.85.89,28-2.68,12.22-2.68,13.71,0,11.33.89,11.63,4.18-2.38,6.26-3.28,9.54,0,9.54,0,1.49-1.19,1.49-4.17-.29-6-.29-8.35,1.79-11.33,2.38-17.59,2.39-21.17,2.68-31-.29-12.82-.29-17.59,3-44.72,3-44.72a46.49,46.49,0,0,1,0-6.56c.3-1.49.59-6,.59-6l-2.08-17.6s-26.84.9-34.59.6-20,0-20,0Z" style="fill:#263238;stroke:#263238;stroke-linecap:round;stroke-linejoin:round"></path><line x1="101.93" y1="373.5" x2="105.21" y2="363.36" style="fill:none;stroke:#fff;stroke-linecap:round;stroke-linejoin:round"></line><path d="M110.88,370.22s-5.37,18.19-5.67,19.38" style="fill:none;stroke:#fff;stroke-linecap:round;stroke-linejoin:round"></path><line x1="107.3" y1="372.31" x2="101.34" y2="388.7" style="fill:none;stroke:#fff;stroke-linecap:round;stroke-linejoin:round"></line><path d="M122.21,372a82.82,82.82,0,0,0-4.18,8.64" style="fill:none;stroke:#fff;stroke-linecap:round;stroke-linejoin:round"></path><path d="M128.47,383.34s7.75,3.28,11.33,3.28" style="fill:none;stroke:#fff;stroke-linecap:round;stroke-linejoin:round"></path><path d="M146.36,387.51A19.12,19.12,0,0,1,138,388.7" style="fill:none;stroke:#fff;stroke-linecap:round;stroke-linejoin:round"></path><path d="M133.54,389.6a17.29,17.29,0,0,0,11,2.68" style="fill:none;stroke:#fff;stroke-linecap:round;stroke-linejoin:round"></path><path d="M130.26,434.62s10.14-.3,8.65,1.19-9.55,3.88-8.35,3.28a23.33,23.33,0,0,0,3.28-2.38" style="fill:none;stroke:#fff;stroke-linecap:round;stroke-linejoin:round"></path><path d="M113.26,423.59s-6.85,10.14-6,10.73,8.65-6,8.65-6" style="fill:none;stroke:#fff;stroke-linecap:round;stroke-linejoin:round"></path><path d="M119.53,441.78s-5.07-7.16-8.65-6.27-5.67,5.37-5.67,5.37l-3,4.47c-.59.9-6-.29-6.56,4.18s3.58,5.36,11.63,6.85,13.12.3,13.12-1.78v-7.76S120.12,445.06,119.53,441.78Z" style="fill:#fff;stroke:#263238;stroke-linecap:round;stroke-linejoin:round"></path><path d="M120.42,454.6c-1.79.29-3-.9-4.17-2.09s-4.18-3.88-11.93-3.88c-6.55,0-8.2,2.13-8.55,2.79.76,2.87,4.78,3.71,11.53,5C115.35,457.88,120.42,456.68,120.42,454.6Z" style="fill:#263238;stroke:#263238;stroke-linecap:round;stroke-linejoin:round"></path><path d="M101.64,445.65s6.56-1.34,11.33,1.94" style="fill:none;stroke:#263238;stroke-linecap:round;stroke-linejoin:round"></path><path d="M143.38,445.2a39.89,39.89,0,0,0,1.79,4.18c.74,1.34,3.28,2.68,3.13,4.62s-3.58,3.43-8.2,3.43a19.09,19.09,0,0,1-9.39-2.39c-.75-.59-1.2-3.13-1.64-4.17s-1-2.54-1-2.54,5.67-5.81,8.95-6.41S143.38,445.2,143.38,445.2Z" style="fill:#fff;stroke:#263238;stroke-linecap:round;stroke-linejoin:round"></path><path d="M148.3,454a2.87,2.87,0,0,0-.73-2c-.14.4-.29.81-.47,1.21-.89,2.09-5.66,3.58-10.88,2.39a11,11,0,0,1-7.15-4.77c.44,1,.89,3.58,1.64,4.17a19.09,19.09,0,0,0,9.39,2.39C144.72,457.43,148.15,455.94,148.3,454Z" style="fill:#fff;stroke:#263238;stroke-linecap:round;stroke-linejoin:round"></path><path d="M139.28,230.39s-4.25-6.26-13.87-6.49-13.86,1.57-15.43,6.26-.89,19.68-.44,20.8,3.13,47,3.13,47a74.45,74.45,0,0,0,13.64.67c6-.45,8.5-2.46,8.5-2.46s4-46.51,4-48.52S139.28,230.39,139.28,230.39Z" style="fill:#75CE36;stroke:#263238;stroke-linecap:round;stroke-linejoin:round"></path><path d="M133,243.88s.55,41.29-.93,50-4.47,23.06-3.91,24.36,6.88.37,13.39.19a47.19,47.19,0,0,0,11.72-1.86s5.76,1.3,7.25-3-2.6-26.22-2.6-31.24-3.35-29.57-3.35-29.57.93-18.05-1.12-21.39-7.62-5.77-10.41-6.14-8.74-.93-8.74-.93Z" style="fill:#fff;stroke:#263238;stroke-linecap:round;stroke-linejoin:round"></path><line x1="148.36" y1="263.67" x2="151.19" y2="263.59" style="fill:none;stroke:#263238;stroke-linecap:round;stroke-linejoin:round"></line><polyline points="148.03 259.87 136.5 259.69 136.69 263.96 145.46 263.74" style="fill:none;stroke:#263238;stroke-linecap:round;stroke-linejoin:round"></polyline><path d="M143.57,283.12s-4.84,3.53-5,9.3" style="fill:none;stroke:#263238;stroke-linecap:round;stroke-linejoin:round"></path><path d="M147.5,303c2.79-1.92,6.52-5.61,6.67-7.06.18-1.86-1.49-5-1.49-5" style="fill:none;stroke:#263238;stroke-linecap:round;stroke-linejoin:round"></path><path d="M141.71,304.32a5.08,5.08,0,0,0,2.89,0" style="fill:none;stroke:#263238;stroke-linecap:round;stroke-linejoin:round"></path><path d="M112.32,243s1.3,24.36,3,33.66,1.86,25.85,1.86,30.88-.19,9.29.18,10.78-2.23,1.49-9.3,2.42-19.34-2.6-19.52-4.09,2.23-18.23,2.41-21-.18-8.93-.18-8.93.56-19.15.93-24S87.77,239.79,87.4,237s-.74-4.65,1.86-6.14,19-7.25,19-7.25Z" style="fill:#fff;stroke:#263238;stroke-linecap:round;stroke-linejoin:round"></path><polyline points="105.22 264.02 97.07 264.34 96.89 262.11" style="fill:none;stroke:#263238;stroke-linecap:round;stroke-linejoin:round"></polyline><polyline points="97.63 259.87 111.76 259.87 111.58 263.78 107.45 263.94" style="fill:none;stroke:#263238;stroke-linecap:round;stroke-linejoin:round"></polyline><path d="M102.42,311.5c1.33.17,2.28.26,2.28.26" style="fill:none;stroke:#263238;stroke-linecap:round;stroke-linejoin:round"></path><path d="M93.72,298s-.93,10.42,1.12,11.72a11.85,11.85,0,0,0,3.36,1.09" style="fill:none;stroke:#263238;stroke-linecap:round;stroke-linejoin:round"></path><path d="M117.16,211.33s-8.19,2.79-10.23,5.77-8.56,20.83-8.56,20.83l13.95,5s-.18-13.39.19-17.3,5.58-8.37,10.41-8.37,9.12,8.93,9.3,11.16.75,15.44.75,15.44,5-4.65,6.69-5.58,9.12-2.42,9.12-2.42-6.7-12.46-9.3-15.44-8.37-8.18-13.58-9.48A13.94,13.94,0,0,0,117.16,211.33Z" style="fill:#263238;stroke:#263238;stroke-linecap:round;stroke-linejoin:round"></path><path d="M117.34,212.82a16.24,16.24,0,0,0-4.09,5.76c-1.11,3.17-.18,7.82-.18,10.23s.55,9.67.55,9.67,6.14-3.16,6.7-3.16,10.6,3,10.6,3,2.23-9.49,0-16.93S122.92,208.17,117.34,212.82Z" style="fill:#75CE36;stroke:#263238;stroke-linecap:round;stroke-linejoin:round"></path><path d="M147.47,196.45s.93,5,.19,8.56-2.79,5-2.79,5.76,1.12,3.72.56,5-2.79,1.68-2.79,1.68-4.47,6.69-6.33,7.44-6.51-.37-6.51-.37-3.72,9.11-6.32,11.53-2.79-4.1-3.72-5.4-2.6-17.11-2.6-17.11-4.09-9.48-5-16.74,7.62-14.5,16.36-16.18,16.18,3.72,18.6,7.63S149.33,194,147.47,196.45Z" style="fill:#ccc;stroke:#263238;stroke-linecap:round;stroke-linejoin:round"></path><path d="M122,211.33s-4.46-3.72-2.23-7.63,5.21-2.41,6.14-.93,1.3,1.68,2.79,1.68,1.67-1.86,2.23-2.42,4.84-.37,6.14-.93,1.67-1.86,1.67-3.35,2.05,0,5.21,0,3.53-1.3,3.53-1.3c1.86-2.42,2.05-4.28-.37-8.18s-9.86-9.3-18.6-7.63-17.29,8.93-16.36,16.18,5,16.74,5,16.74a57.08,57.08,0,0,0,5.76-2Z" style="fill:#263238;stroke:#263238;stroke-linecap:round;stroke-linejoin:round"></path><path d="M141,211c-.32.58-.84.91-1.15.74s-.31-.79,0-1.38.84-.91,1.15-.73S141.29,210.38,141,211Z" style="fill:#263238"></path><path d="M143.38,207.61a2.42,2.42,0,0,0-3.9-.37" style="fill:none;stroke:#263238;stroke-linecap:round;stroke-linejoin:round"></path><path d="M135.38,215.42s.38,2.23,4.47,3.54" style="fill:none;stroke:#263238;stroke-linecap:round;stroke-linejoin:round"></path><path d="M90.75,229.93s-6.7,3.16-6.88,6.14-7.44,32-7.26,35.15.37,5.39,1.86,6.88S95.4,290,95.4,290l6.13-9.11-9.85-13.58s4.09-10.23,4.65-11.16,1.48-6.32-.19-10.23" style="fill:#fff;stroke:#263238;stroke-linecap:round;stroke-linejoin:round"></path><path d="M81.65,269.15a5.4,5.4,0,0,1,2-1.09c2.42-.56,7.44,0,7.44,0a15.22,15.22,0,0,0-4.46-1.68c-2.24-.37-6.51.75-7.07,1.68" style="fill:none;stroke:#263238;stroke-linecap:round;stroke-linejoin:round"></path><path d="M78.29,272.71a21.61,21.61,0,0,1,1.79-2.12" style="fill:none;stroke:#263238;stroke-linecap:round;stroke-linejoin:round"></path><polygon points="101.53 280.89 104.14 284.61 97.26 290.75 95.4 290 101.53 280.89" style="fill:#ccc;stroke:#263238;stroke-linecap:round;stroke-linejoin:round"></polygon><line x1="108.6" y1="281.08" x2="94.28" y2="293.72" style="fill:none;stroke:#263238;stroke-linecap:round;stroke-linejoin:round"></line><path d="M150.08,241.83s-1.68,12.84-.93,15.07,11.16,12.83,11.16,12.83L149,281.26l3.72,9.67s10.23-6.32,14.69-9.3,8.19-6.88,8.37-9.48-.37-7.44-1.67-9.86-11.72-16.92-13-19.16-3.53-8.74-6-11.34a15.55,15.55,0,0,0-6.14-3.72" style="fill:#fff;stroke:#263238;stroke-linecap:round;stroke-linejoin:round"></path><path d="M160.31,269.73a30.88,30.88,0,0,1,3.34-2.6c1.49-.93,6-2.05,7.44-1.31" style="fill:none;stroke:#263238;stroke-linecap:round;stroke-linejoin:round"></path><path d="M166.7,263.48c-1.49.38-2.89,1-3.42,2" style="fill:none;stroke:#263238;stroke-linecap:round;stroke-linejoin:round"></path><path d="M171.28,262.85s-.82,0-1.95.16" style="fill:none;stroke:#263238;stroke-linecap:round;stroke-linejoin:round"></path></g><g id="freepik--Floor--inject-65"><line x1="477.03" y1="457.43" x2="483" y2="457.43" style="fill:none;stroke:#263238;stroke-linecap:round;stroke-linejoin:round"></line><line x1="70.85" y1="457.43" x2="473.84" y2="457.43" style="fill:none;stroke:#263238;stroke-linecap:round;stroke-linejoin:round"></line><line x1="11" y1="457.43" x2="65.8" y2="457.43" style="fill:none;stroke:#263238;stroke-linecap:round;stroke-linejoin:round"></line></g></svg>